<svg width="24" height="24" viewBox="0 0 24 24" fill="none" xmlns="http://www.w3.org/2000/svg">
  <path d="M12 .5C5.648.5.5 5.648.5 12c0 5.086 3.292 9.387 7.865 10.905.575.106.785-.25.785-.556 0-.274-.01-1.002-.015-1.966-3.2.695-3.875-1.542-3.875-1.542-.523-1.33-1.278-1.684-1.278-1.684-1.045-.714.08-.699.08-.699 1.155.081 1.763 1.187 1.763 1.187 1.028 1.762 2.695 1.253 3.35.958.104-.745.402-1.253.732-1.542-2.554-.291-5.238-1.277-5.238-5.683 0-1.255.448-2.282 1.183-3.086-.119-.29-.513-1.46.112-3.044 0 0 .965-.309 3.164 1.18A11.06 11.06 0 0112 5.8c.977.004 1.962.132 2.879.388 2.197-1.489 3.16-1.18 3.16-1.18.627 1.584.233 2.754.114 3.044.737.804 1.182 1.831 1.182 3.086 0 4.417-2.688 5.389-5.25 5.673.413.356.78 1.057.78 2.129 0 1.537-.014 2.778-.014 3.152 0 .309.207.669.79.554C20.213 21.383 23.5 17.083 23.5 12c0-6.352-5.148-11.5-11.5-11.5Z" fill="#000"/>
</svg>
